<svg width="20" height="20" viewBox="0 0 20 20" fill="none" xmlns="http://www.w3.org/2000/svg">
<path fill-rule="evenodd" clip-rule="evenodd" d="M8.89647 2.09253C7.09215 2.09253 5.36173 2.80929 4.08589 4.08513C2.81005 5.36098 2.09329 7.09139 2.09329 8.89571C2.09329 10.7 2.81005 12.4304 4.08589 13.7063C5.36173 14.9821 7.09215 15.6989 8.89647 15.6989C10.7008 15.6989 12.4312 14.9821 13.707 13.7063C14.9829 12.4304 15.6996 10.7 15.6996 8.89571C15.6996 7.09139 14.9829 5.36098 13.707 4.08513C12.4312 2.80929 10.7008 2.09253 8.89647 2.09253ZM2.00628e-08 8.89571C0.000120879 7.47708 0.339494 6.07905 0.989804 4.81826C1.64011 3.55746 2.5825 2.47046 3.73835 1.64795C4.8942 0.825441 6.22998 0.291267 7.63426 0.0899958C9.03854 -0.111275 10.4706 0.0261936 11.8109 0.490933C13.1513 0.955673 14.361 1.73421 15.3393 2.76158C16.3176 3.78896 17.036 5.03538 17.4346 6.39686C17.8331 7.75835 17.9004 9.19541 17.6306 10.5882C17.3609 11.9809 16.7619 13.2889 15.8839 14.4031L19.7062 18.2255C19.8968 18.4229 20.0023 18.6873 20 18.9617C19.9976 19.2361 19.8875 19.4986 19.6934 19.6927C19.4994 19.8867 19.2369 19.9968 18.9625 19.9992C18.688 20.0016 18.4236 19.8961 18.2262 19.7054L14.4039 15.8831C13.0921 16.9172 11.5156 17.561 9.8549 17.741C8.19422 17.9209 6.51642 17.6297 5.01352 16.9007C3.51061 16.1716 2.24333 15.0341 1.35669 13.6185C0.470054 12.2028 -0.000112141 10.5661 2.00628e-08 8.89571ZM7.84982 5.23246C7.84982 4.95487 7.96009 4.68865 8.15638 4.49237C8.35266 4.29609 8.61888 4.18582 8.89647 4.18582C10.1456 4.18582 11.3436 4.68203 12.2269 5.56531C13.1101 6.44859 13.6064 7.64657 13.6064 8.89571C13.6064 9.1733 13.4961 9.43951 13.2998 9.6358C13.1035 9.83208 12.8373 9.94235 12.5597 9.94235C12.2821 9.94235 12.0159 9.83208 11.8196 9.6358C11.6233 9.43951 11.5131 9.1733 11.5131 8.89571C11.5131 8.20174 11.2374 7.5362 10.7467 7.04549C10.256 6.55478 9.59043 6.2791 8.89647 6.2791C8.61888 6.2791 8.35266 6.16883 8.15638 5.97255C7.96009 5.77626 7.84982 5.51005 7.84982 5.23246Z" fill="black"/>
</svg>
